<svg width="64" height="64" viewBox="0 0 64 64" fill="none" xmlns="http://www.w3.org/2000/svg">
<path d="M39.4962 37.3874C39.1226 37.3548 38.8174 37.1972 38.5806 36.915C38.344 36.6331 38.2401 36.3259 38.2691 35.9938L39.0699 26.8403L22.2763 40.9319C21.9829 41.1781 21.6597 41.2857 21.3068 41.2549C20.954 41.224 20.6544 41.0618 20.4082 40.7684C20.162 40.475 20.0543 40.1518 20.0852 39.799C20.1161 39.4461 20.2782 39.1466 20.5717 38.9004L37.3653 24.8088L28.1495 24.0025C27.7759 23.9699 27.4812 23.8134 27.2652 23.533C27.0491 23.2527 26.9575 22.9257 26.9902 22.5521C27.0418 22.201 27.2087 21.9071 27.4908 21.6704C27.773 21.4337 28.0801 21.3298 28.4122 21.3589L40.8037 22.4429C41.0112 22.4612 41.1849 22.5077 41.3247 22.5827C41.4645 22.6577 41.5914 22.7628 41.7051 22.8982C41.8187 23.0337 41.9002 23.1769 41.9497 23.3276C41.9994 23.4783 42.015 23.6575 41.997 23.8649L40.9184 36.1941C40.8856 36.5678 40.7338 36.8683 40.463 37.0955C40.1921 37.3228 39.8698 37.4201 39.4962 37.3874Z" fill="white"/>
</svg>
